<svg width="44" height="68" viewBox="0 0 44 68" fill="none" xmlns="http://www.w3.org/2000/svg">
<path d="M20.7871 31.7756C20.7871 31.7756 34.9544 10.6973 4.30988 5.58118C4.30988 5.63234 -4.21103 30.2407 20.7871 31.7756Z" stroke="#FFE195" stroke-width="3" stroke-miterlimit="10" stroke-linecap="round" stroke-linejoin="round"/>
<path d="M25.1502 31.4687C48.4543 28.0921 40.0874 2 40.0874 2C30.6939 3.22786 25.2528 6.7068 22.2243 9.57182" stroke="#FFE195" stroke-width="3" stroke-miterlimit="10" stroke-linecap="round" stroke-linejoin="round"/>
<path d="M20.787 31.7757C20.787 31.7757 18.5285 24.6643 11.7528 15.8135" stroke="#FFE195" stroke-width="3" stroke-miterlimit="10" stroke-linecap="round" stroke-linejoin="round"/>
<path d="M33.5171 12.5903C33.5171 12.5903 26.3821 15.8646 23.8156 24.255" stroke="#FFE195" stroke-width="3" stroke-miterlimit="10" stroke-linecap="round" stroke-linejoin="round"/>
<path d="M4.0531 39.2963L9.5455 64.0582C9.80215 65.1325 10.7261 65.8999 11.8554 65.8999H32.6444C33.7736 65.8999 34.6976 65.1325 34.9542 64.0582L40.4466 39.2963" stroke="#FFE195" stroke-width="3" stroke-miterlimit="10" stroke-linecap="round" stroke-linejoin="round"/>
<path d="M13.6521 39.2962H4.05323C2.92395 39.2962 2 38.3753 2 37.2498C2 36.1243 2.92395 35.2034 4.05323 35.2034H40.4468C41.576 35.2034 42.5 36.1243 42.5 37.2498C42.5 38.3753 41.576 39.2962 40.4468 39.2962" stroke="#FFE195" stroke-width="3" stroke-miterlimit="10" stroke-linecap="round" stroke-linejoin="round"/>
<path d="M40.4467 39.2963H33.8764" stroke="#FFE195" stroke-width="3" stroke-miterlimit="10" stroke-linecap="round" stroke-linejoin="round"/>
</svg>
