<svg width="66" height="64" viewBox="0 0 66 64" fill="none" xmlns="http://www.w3.org/2000/svg">
<path d="M32.8244 15.2141L34.8659 19.3768C35.3034 20.2965 36.1783 20.9257 37.1991 21.0709L41.8168 21.7486L38.4629 24.9916C37.7338 25.7177 37.3935 26.7341 37.5879 27.7022L38.3656 32.3005L34.234 30.1224C33.3591 29.6383 32.2411 29.6383 31.3661 30.1224L27.2345 32.2521L28.0122 27.6538C28.2066 26.6373 27.8664 25.6209 27.1373 24.9432L23.7833 21.7002L28.4011 21.0225C29.4218 20.8773 30.2968 20.2481 30.7342 19.3284L32.8244 15.2141Z" stroke="#FFE195" stroke-width="3" stroke-miterlimit="10" stroke-linecap="round"/>
<path d="M32.8243 45.5631C44.9047 45.5631 54.6978 35.8112 54.6978 23.7816C54.6978 11.7519 44.9047 2 32.8243 2C20.7439 2 10.9508 11.7519 10.9508 23.7816C10.9508 35.8112 20.7439 45.5631 32.8243 45.5631Z" stroke="#FFE195" stroke-width="3" stroke-miterlimit="10"/>
<path d="M49.8857 23.7814C49.8857 14.3911 42.2543 6.79175 32.8244 6.79175C23.3945 6.79175 15.7631 14.3911 15.7631 23.7814" stroke="#FFE195" stroke-width="3" stroke-miterlimit="10" stroke-linecap="round"/>
<path d="M52.8021 38.7865L61.6001 50.6453L50.8578 48.8544L49.0593 59.6L38.4629 44.8853" stroke="#FFE195" stroke-width="3" stroke-miterlimit="10" stroke-linecap="round"/>
<path d="M12.798 38.7865L4 50.6453L14.7909 48.8544L16.5408 59.6L27.1373 44.8853" stroke="#FFE195" stroke-width="3" stroke-miterlimit="10" stroke-linecap="round"/>
</svg>
