<svg width="58" height="57" viewBox="0 0 58 57" fill="none" xmlns="http://www.w3.org/2000/svg">
<path d="M38.7146 12.8211L13.3816 37.7671L6.77512 31.2359L32.1081 6.28992" stroke="#FFE195" stroke-width="3" stroke-miterlimit="10" stroke-linecap="round" stroke-linejoin="round"/>
<path d="M3.5464 36.9324L7.61955 40.9591C8.31497 41.6466 9.45744 41.6466 10.1529 40.9591L13.4312 37.7672L6.77512 31.2361L3.49673 34.428C2.85098 35.1155 2.80131 36.2449 3.5464 36.9324Z" stroke="#FFE195" stroke-width="3" stroke-miterlimit="10" stroke-linecap="round"/>
<path d="M38.7145 12.8213L41.8936 3L32.1081 6.29012C32.9525 9.43293 35.4361 11.8882 38.5655 12.7722L38.7145 12.8213Z" stroke="#FFE195" stroke-width="3" stroke-miterlimit="10" stroke-linecap="round" stroke-linejoin="round"/>
<path d="M32.3565 12.4283L28.6808 16.0622" stroke="#FFE195" stroke-width="3" stroke-miterlimit="10" stroke-linecap="round" stroke-linejoin="round"/>
<path d="M4.44053 55.2H56.1V4.12939L4.44053 55.2ZM46.6622 45.9189H27.0912L46.6622 26.571V45.9189Z" stroke="#FFE195" stroke-width="3" stroke-miterlimit="10" stroke-linecap="round"/>
<path d="M53.7657 15.0802H52.2755" stroke="#FFE195" stroke-width="3" stroke-miterlimit="10" stroke-linecap="round"/>
<path d="M53.7656 19.3523H51.0336" stroke="#FFE195" stroke-width="3" stroke-miterlimit="10" stroke-linecap="round"/>
<path d="M53.7657 23.5756H52.2755" stroke="#FFE195" stroke-width="3" stroke-miterlimit="10" stroke-linecap="round"/>
<path d="M53.7656 27.8478H51.0336" stroke="#FFE195" stroke-width="3" stroke-miterlimit="10" stroke-linecap="round"/>
<path d="M53.7657 32.0708H52.2755" stroke="#FFE195" stroke-width="3" stroke-miterlimit="10" stroke-linecap="round"/>
<path d="M53.7656 36.3431H51.0336" stroke="#FFE195" stroke-width="3" stroke-miterlimit="10" stroke-linecap="round"/>
<path d="M53.7657 40.5663H52.2755" stroke="#FFE195" stroke-width="3" stroke-miterlimit="10" stroke-linecap="round"/>
<path d="M53.7656 44.8385H51.0336" stroke="#FFE195" stroke-width="3" stroke-miterlimit="10" stroke-linecap="round"/>
<path d="M53.7657 49.0618H52.2755" stroke="#FFE195" stroke-width="3" stroke-miterlimit="10" stroke-linecap="round"/>
</svg>
